<svg id="Layer_1" enable-background="new 0 0 488 488" height="512" viewBox="0 0 488 488" width="512" xmlns="http://www.w3.org/2000/svg"><path d="m141 8c0-4.418-3.582-8-8-8s-8 3.582-8 8v61.68c-19.871 23.135-31.973 50.541-35.936 81.535-.1.779-.064-3.681-.064 68.696 0 20.282 15.973 36.903 36 37.947v158.735c-13.769 3.684-26.644 10.428-37.56 19.735-3.362 2.866-3.764 7.916-.897 11.278 2.866 3.362 7.916 3.764 11.278.897 8.002-6.822 17.263-11.992 27.179-15.229v46.726c0 4.418 3.582 8 8 8s8-3.582 8-8c0-424.124 0-240.235 0-472zm-36 211.911v-67.166c2.703-20.612 9.424-39.433 20-56.224v145.295c-11.197-1.014-20-10.449-20-21.905zm296.454 227.692c-2.866 3.363-7.915 3.764-11.278.898-8-6.821-17.261-11.989-27.176-15.226v46.725c0 4.418-3.582 8-8 8s-8-3.582-8-8v-472c0-4.418 3.582-8 8-8s8 3.582 8 8v67.562c22.608 18.815 36 47.172 36 76.667v67.682c0 4.418-3.582 8-8 8s-8-3.582-8-8v-67.682c0-19.917-7.277-39.214-20-54.225v318.588c13.767 3.684 26.643 10.428 37.557 19.733 3.362 2.866 3.763 7.916.897 11.278zm82.546-439.603v472c0 4.418-3.582 8-8 8s-8-3.582-8-8v-472c0-4.418 3.582-8 8-8s8 3.582 8 8zm-48 0v472c0 4.418-3.582 8-8 8s-8-3.582-8-8v-472c0-4.418 3.582-8 8-8s8 3.582 8 8zm-416 0v472c0 4.418-3.582 8-8 8s-8-3.582-8-8v-472c0-4.418 3.582-8 8-8s8 3.582 8 8zm48 0v472c0 4.418-3.582 8-8 8s-8-3.582-8-8v-472c0-4.418 3.582-8 8-8s8 3.582 8 8zm245 472c0 4.418-3.582 8-8 8s-8-3.582-8-8v-68.112c-9.326-9.67-14.955-22.383-15.847-35.779-16.59 5.415-34.057 7.082-51.192 5.065-4.388-.517-7.526-4.493-7.01-8.881s4.49-7.52 8.881-7.01c22.279 2.625 45.209-1.919 65.167-13.855v-229.428h-71.871c-4.418 0-8-3.582-8-8s3.582-8 8-8h71.872v-43.926c-21.88-9.571-38.971-21.074-55.761-37.528-17.832 3.039-34.69 8.24-50.239 15.482v364.027c17.63 24.725 50.215 35.358 78.654 22.361 4.016-1.838 8.765-.068 10.602 3.95 1.836 4.019.067 8.765-3.951 10.602-26.765 12.233-59.588 9.061-85.305-13.45v52.482c0 4.418-3.582 8-8 8s-8-3.582-8-8v-472c0-4.418 3.582-8 8-8s8 3.582 8 8v14.524c16.189-6.827 33.558-11.673 51.803-14.434 2.536-.383 5.101.471 6.899 2.298 14.55 14.784 29.154 25.355 47.298 34.076v-36.464c0-4.418 3.582-8 8-8s8 3.582 8 8zm-89.805-168.666c-4.052 1.765-8.765-.091-10.529-4.14-1.764-4.051.089-8.765 4.14-10.529 16.953-7.384 36.7-7.706 54.39 0 4.051 1.765 5.903 6.479 4.139 10.529-1.765 4.05-6.476 5.902-10.529 4.14-12.945-5.638-28.051-5.906-41.611 0z"/></svg>