<svg id="Layer_1" enable-background="new 0 0 512 512" width="56.69px" height="56.69px" viewBox="0 0 512 512" xmlns="http://www.w3.org/2000/svg">
<g>
<path d="m110 502-45-40v-412l45-40z"/>
<path d="m358 10 90 90v-90z"/>
<path d="m448 412-90 90h90z"/>
<g>
<circle fill="rgb(255,204,0)" cx="279" cy="502" r="10"/>
<path fill="rgb(255,204,0)" d="m454.819 2.93c-1.859-1.86-4.314-2.93-6.944-2.93 0 0-337.957.004-337.968.005-2.393.008-4.723.869-6.582 2.521l-45.234 40c-2.135 1.897-3.591 4.618-3.591 7.474v412c0 2.856 1.472 5.577 3.606 7.474l45.125 40c1.866 1.659 4.302 2.526 6.705 2.526h.064 124c5.51 0 10-4.49 10-10s-4.49-10-10-10h-114.5v-472h234.357l83.643 84.143v303.715l-83.643 84.142h-29.857c-5.51 0-10 4.49-10 10s4.49 10 10 10h124c2.63 0 4.96-1.07 6.819-2.93 1.86-1.86 2.681-4.44 2.681-7.07v-492c0-2.63-.82-5.21-2.681-7.07zm-355.319 476.801-25-22.222v-403.018l25-22.222zm338 12.269h-55.357l55.357-55.858zm0-416.142-55.357-55.858h55.357z"/>
<path fill="#fff" d="m179 130c0 5.523 4.478 10 10 10h180c5.522 0 10-4.477 10-10s-4.478-10-10-10h-180c-5.522 0-10 4.477-10 10z"/>
<path fill="#fff" d="m349 100c5.522 0 10-4.477 10-10s-4.478-10-10-10h-140c-5.522 0-10 4.477-10 10s4.478 10 10 10z"/>
<path fill="#fff" d="m189 290h180c5.522 0 10-4.477 10-10s-4.478-10-10-10h-180c-5.522 0-10 4.477-10 10s4.478 10 10 10z"/>
<path fill="#fff" d="m209 330h140c5.522 0 10-4.477 10-10s-4.478-10-10-10h-140c-5.522 0-10 4.477-10 10s4.478 10 10 10z"/>
<path fill="#fff" d="m262.357 160c-.004 0-.009 0-.013 0-4.646.005-8.855 2.724-10.722 6.928-.035.079-28.638 69.251-28.638 69.251-2.11 5.104.316 10.952 5.42 13.063 5.104 2.109 10.951-.223 13.063-5.326l4.553-10.916h32.455l4.498 10.885c1.586 3.87 5.319 6.165 9.258 6.164 1.263 0 2.547-.264 3.787-.773 5.11-2.094 7.557-7.946 5.463-13.056 0 0-28.357-69.215-28.399-69.31-1.875-4.195-6.083-6.91-10.725-6.91zm-8.067 53 8.032-19.426 7.959 19.426z"/>
<path fill="#fff" d="m159.5 160c-5.522 0-10 4.477-10 10v69.941c0 4.949 3.764 9.264 8.657 10 .64.096 25.127.044 36.597 0 5.522-.021 10.018-4.487 9.997-10.01-.021-5.51-4.458-9.931-9.963-9.931-.014 0-.026 0-.04 0-7.346 0-17.248-.061-25.248-.059v-59.941c0-5.523-4.478-10-10-10z"/>
<path fill="#fff" d="m355.983 160.536c-3.328 1.136-5.662 3.855-6.463 7.028l-13.791 40.226-8.748-39.93c-1.183-5.395-6.509-8.813-11.909-7.628-5.395 1.182-8.81 6.513-7.628 11.908 0 0 15.375 69.977 15.57 70.471 1.77 4.497 6.062 7.389 10.95 7.389h.092c4.924-.036 9.213-2.998 10.927-7.545.035-.094 14.229-41.49 14.229-41.49s14.166 41.504 14.223 41.647c1.77 4.497 6.062 7.389 10.95 7.389h.092c4.924-.036 9.213-2.998 10.927-7.545.168-.447 15.574-70.173 15.574-70.173 1.188-5.394-2.22-10.729-7.613-11.918-5.387-1.188-10.729 2.219-11.918 7.613l-8.775 39.808-13.995-41.013c-1.783-5.23-7.467-8.018-12.694-6.237z"/>
</g>
</g>
</svg>