<svg id="Line" width="56.69px" height="56.69px" viewBox="0 0 64 64" xmlns="http://www.w3.org/2000/svg"><g fill="rgb(255,204,0)"><path d="m35.00586 13.51367a15.21561 15.21561 0 0 0 -21.49219 0c-9.56535 9.52533-2.60186 26.0254 10.74633 25.93544 13.3479.08975 20.31168-16.41239 10.74586-25.93544zm-1.41406 20.07764a13.21368 13.21368 0 0 1 -18.66407 0c-8.30548-8.27191-2.25991-22.60065 9.33227-22.52188 11.59186-.07859 17.63769 14.25191 9.3318 22.52188z"/><path d="m57.97559 48.91016-15.92725-14.95191a20.14263 20.14263 0 0 0 2.47119-9.69848c.225-10.88839-9.36993-20.48559-20.25992-20.2596-17.90306-.07227-27.02476 21.94229-14.32575 34.58538a20.33933 20.33933 0 0 0 24.02381 3.463l14.95151 15.92752a6.36742 6.36742 0 0 0 4.57617 2.02344c5.75895.1788 8.76265-7.20473 4.49024-11.08935zm-46.62793-11.73877c-11.44274-11.39234-3.22719-31.23847 12.91234-31.17128 16.17483-.02753 24.36852 19.75589 12.9107 31.17135-6.79612 7.08267-19.0267 7.08305-25.82304-.00007zm45.35934 19.53613a4.43034 4.43034 0 0 1 -6.33886-.10064l-14.67249-15.63a19.98128 19.98128 0 0 0 5.28113-5.28119l15.62967 14.67247a4.43408 4.43408 0 0 1 .10055 6.33936z"/><path d="m53.49316 50.08936a3.28268 3.28268 0 0 0 .0001 6.56494 3.28268 3.28268 0 0 0 -.0001-6.56494zm0 4.56494a1.28261 1.28261 0 0 1 .00006-2.56494 1.28261 1.28261 0 0 1 -.00006 2.56494z"/></g></svg>