<svg id="Capa_1" enable-background="new 0 0 512 512" height="512" viewBox="0 0 512 512" width="512" xmlns="http://www.w3.org/2000/svg"><path id="XMLID_342_" d="m501 196.001v-.003-119.998h1c5.523 0 10-4.477 10-10s-4.477-10-10-10h-11-48-9v-36h68c5.523 0 10-4.477 10-10s-4.477-10-10-10h-78-112-112-112-78c-5.523 0-10 4.477-10 10s4.477 10 10 10h68v36h-9-48-11c-5.523 0-10 4.477-10 10s4.477 10 10 10h1v155.979c0 .007-.001.013-.001.019v48c0 .007.001.013.001.019v155.983h-1c-5.523 0-10 4.477-10 10s4.477 10 10 10h11 48 9v36h-68c-5.523 0-10 4.477-10 10s4.477 10 10 10h78 112 112 112 78c5.523 0 10-4.477 10-10s-4.477-10-10-10h-68v-36h9 48 11c5.523 0 10-4.477 10-10s-4.477-10-10-10h-1v-120.001zm-77 239.999h-69v-146.001h30v26c0 5.523 4.477 10 10 10h38v110.001zm-336 0h-9v-146.001h78v146.001zm-57.001-193.999h38.001c.016 0 .032-.002.048-.002h97.903c.016 0 .032.002.048.002h40c.016 0 .032-.002.048-.002h97.903c.016 0 .032.002.048.002h40c.016 0 .032-.002.048-.002h39.954v28h-40-40-98-40-98-38.001zm57.001-166.001h69v145.999h-78v-145.999zm109 0v28.001c0 5.523 4.477 10 10 10s10-4.477 10-10v-28.001h78v145.999h-78v-27.998c0-5.523-4.477-10-10-10s-10 4.477-10 10v27.998h-20v-145.999zm227 0h9v109.999h-38c-5.523 0-10 4.477-10 10v26h-30v-145.999zm-89 145.999h-20v-145.999h20zm-158 68h20v146.001h-20zm40 0h78v146.001h-78zm98 146.001v-146.001h20v146.001zm90-130.001v-26-48-26h37.942c.02 0 .038.003.058.003h38v99.997h-38zm76-229.999v109.999h-28v-109.999zm-67-20h-69-23v-36h92zm-112 0h-92v-36h92zm-112 0h-23-69v-36h92zm-131 20v145.999h-28v-145.999zm-28 360v-146.001h28v146.001zm67 20h69 23v36h-92zm112 0h92v36h-92zm112 0h23 69v36h-92zm131-20v-110.001h28v110.001z"/><path id="XMLID_1393_" d="m443 257.999c-5.523 0-10 4.477-10 10v12c0 5.523 4.477 10 10 10s10-4.477 10-10v-12c0-5.523-4.477-10-10-10z"/><path id="XMLID_1394_" d="m443 222c-2.63 0-5.21 1.07-7.07 2.93s-2.93 4.44-2.93 7.07 1.07 5.21 2.93 7.07 4.44 2.93 7.07 2.93 5.21-1.07 7.07-2.93 2.93-4.44 2.93-7.07c0-2.64-1.07-5.21-2.93-7.07s-4.44-2.93-7.07-2.93z"/><path id="XMLID_1395_" d="m207 159c2.63 0 5.21-1.07 7.07-2.93s2.93-4.44 2.93-7.07-1.07-5.21-2.93-7.07-4.44-2.93-7.07-2.93-5.21 1.07-7.07 2.93-2.93 4.44-2.93 7.07 1.07 5.21 2.93 7.07 4.44 2.93 7.07 2.93z"/></svg>