<svg id="Line" width="56.69px" height="56.69px" viewBox="0 0 64 64" xmlns="http://www.w3.org/2000/svg"><g fill="rgb(255,204,0)"><path d="m52.354 10.91406-18.30908-6.55859a6.07535 6.07535 0 0 0 -4.08984 0l-18.3086 6.55859a6.07528 6.07528 0 0 0 -4.01855 5.707l.00049 14.33894c.00488.19727.75586 19.81934 22.043 28.58106a6.17426 6.17426 0 0 0 4.65771 0c21.28662-8.76172 22.0376-28.38379 22.043-28.60645v-14.31352a6.07551 6.07551 0 0 0 -4.01813-5.70703zm-18.78613 46.77735a4.15274 4.15274 0 0 1 -3.13525 0c-20.04932-8.25196-20.78369-26.03125-20.80469-26.75684v-14.31348a4.07118 4.07118 0 0 1 2.69287-3.82421l18.30908-6.5586a4.074 4.074 0 0 1 2.74024 0l18.30957 6.5586a4.07142 4.07142 0 0 1 2.69238 3.82421l.00049 14.28614c-.02149.75293-.75586 18.53222-20.80469 26.78418z"/><path d="m47.87354 15.42285-14.21143-5.09085a4.931 4.931 0 0 0 -3.32422 0l-14.21143 5.09085a4.9414 4.9414 0 0 0 -3.26708 4.64063l.00048 11.13574c.00391.15527.59229 15.52832 17.24756 22.38379a5.01168 5.01168 0 0 0 3.78516 0c16.65527-6.85547 17.24365-22.22852 17.24805-22.40918v-11.11035a4.94141 4.94141 0 0 0 -3.26709-4.64063zm-14.7417 36.31055a2.98815 2.98815 0 0 1 -2.26368 0c-15.41748-6.3457-15.99216-20.00879-16.00878-20.55957v-11.11035a2.93615 2.93615 0 0 1 1.94189-2.75782l14.21094-5.09082a2.93233 2.93233 0 0 1 1.97558 0l14.21094 5.09082a2.93616 2.93616 0 0 1 1.9419 2.75782l.00048 11.083c-.01711.57813-.59179 14.24122-16.00927 20.58692z"/></g></svg>