<svg id="Layer_5" enable-background="new 0 0 64 64" height="512" viewBox="0 0 64 64" width="512" xmlns="http://www.w3.org/2000/svg"><path d="m63 7v-6h-62v6h3v8.213c-1.853 1.906-3 4.502-3 7.364 0 3.638 1.915 7.057 5 8.977v2.925c-3.089 2.085-5 5.605-5 9.352 0 .057.007.112.008.168h-.008v5.344c0 7.308 5.776 13.278 13 13.624v.033h29.476 9.524 5c2.757 0 5-2.243 5-5v-7h-1.877c-.387 0-.759.059-1.123.143v-44.143zm-60-4h58v2h-58zm47.203 54h5.797v4h-3.088c-.29-1.67-1.293-3.123-2.709-4zm-12.958-6.515c-.814-1.175-1.245-2.553-1.245-3.984v-1.501h-2v1.501c0 .791.122 1.564.322 2.315l-3.43 2.668c-.384-.208-.803-.36-1.249-.432l-.078-.157c-.584-1.169-1.758-1.895-3.065-1.895-1.301 0-2.47.719-3.057 1.878l-.954-.179 6.652-5.766c1.44-1.246 3.281-1.933 5.183-1.933 3.061 0 5.875 1.793 7.17 4.566l4.152 8.898-3.338 1.335zm-24.313 7.015 1.068.146v3.321c-2.597-.146-4.97-1.135-6.841-2.712l1.896-1.896c1.207.557 2.505.954 3.877 1.141zm3.068.418 2.911.397c.92.125 1.846.23 2.774.321-1.656 1.251-3.631 2.034-5.685 2.275zm3.181-1.585-5.979-.815c-3.083-.42-5.755-2.036-7.594-4.331.05.001.101.008.151.008 1.732 0 3.434-.433 4.994-1.232.83.521 1.763.901 2.773 1.09l11.031 2.069.667-1.333c.243-.486.732-.789 1.276-.789s1.033.303 1.276.789l.606 1.211h.618c1.103 0 2 .897 2 2s-.897 2-2 2c-3.274 0-6.578-.225-9.819-.667zm-16.181-12.502c0-.279.027-.555.052-.831h3.948v.19c0 .621.079 1.225.214 1.81h-4.152c-.039-.385-.062-.775-.062-1.169zm11.292-2.589c.524.647 1.003 1.329 1.425 2.048l-6.447 1.612c-.163-.547-.27-1.117-.27-1.712v-.436zm-7.081-15.054c-.138-.278-.211-.587-.211-.896v-.292c0-1.103.897-2 2-2h.535l1.703-2.555c.186-.279.497-.445.832-.445h4.93.491c.444 0 .84.298.961.725l1.484 5.194c.043.146.064.299.064.45 0 .625-.347 1.187-.904 1.466l-1.096.547v.618.36c0 1.455-1.185 2.64-2.64 2.64-.174 0-.349-.018-.518-.051l-4.647-.93-.392 1.961 2.197.44v2.988c-1.227-.853-2.568-1.558-4-2.1v-6.545zm14.62-13.016c-.513-.513-1.146-.855-1.831-1.031v-5.141h4v39.743l-4 3.467v-20.592c1.233-.622 2-1.866 2-3.249 0-.337-.047-.673-.14-.999l-1.484-5.194c-.039-.135-.091-.263-.147-.388 1.602-.521 2.772-2.011 2.773-3.784.001-1.07-.415-2.075-1.171-2.832zm-7.831-6.172v5h-2.423c-.537 0-1.061.053-1.577.131v-5.131zm2 0h2v5h-2zm31.17 48-1.17-2.508v-45.492h2v48zm-3.17-6.793-.693-1.486c-.747-1.6-1.909-2.922-3.307-3.901v-35.82h4zm-6-6.472c-.642-.259-1.31-.456-2-.576v-34.159h2zm-4-.72c-1.396.046-2.758.379-4 .982v-34.997h4zm-6 2.274c-.055.046-.114.086-.168.133l-1.832 1.588v-38.01h2zm-17.816 3.446 6.457-1.615c.642 1.486 1.078 3.071 1.26 4.719l-4.006-.751c-1.54-.289-2.835-1.163-3.711-2.353zm3.816-8.716v-4.199l.451.09c.299.06.605.09.909.09.983 0 1.888-.317 2.64-.84v10.16c-1.006-1.99-2.361-3.787-4-5.301zm-6.027 8.981c.304.559.673 1.078 1.098 1.549-1.531.61-3.197.786-4.837.507-.326-.656-.595-1.342-.796-2.056zm24.4 5.866 2.717-2.114c.159.296.318.592.511.871l2.337 3.377h-4.938c0-.786-.234-1.515-.627-2.134zm17.627 2.134v-48h4v48zm-42-48v5.636c-.705.254-1.374.58-2 .971v-6.607zm-5 15.577c0-4.729 3.848-8.577 8.577-8.577h7.425c.534 0 1.037.208 1.415.586.377.378.585.881.585 1.415-.001 1.103-.897 1.999-2 1.999h-1.511-.491-4.93c-1.005 0-1.938.499-2.496 1.336l-1.136 1.703c-1.94.274-3.438 1.946-3.438 3.961v.292c0 .617.146 1.235.422 1.789l.578 1.155v.835c-1.871-1.614-3-3.987-3-6.494zm4.127 13.527c2.134.78 4.039 1.985 5.641 3.494l-4.477 1.279-1.584-1.584-1.414 1.414.293.293h-2.121c.637-1.975 1.91-3.722 3.662-4.896zm-3.965 15.096c1.049 1.649 2.433 3.07 4.071 4.152l-1.489 1.489c-1.329-1.578-2.239-3.515-2.582-5.641zm18.587 9.8c.445-.27.881-.556 1.293-.877l1.617-1.259c1.448.085 2.897.136 4.341.136 1.474 0 2.75-.81 3.444-2h6.878l2.769 4zm22.775 0-1.048-1.513 3.619-1.448.786.157c1.47.294 2.611 1.407 2.986 2.804zm16.476-3c0 1.654-1.346 3-3 3v-4.878l.212-.85c.325-1.298 1.461-2.217 2.788-2.27zm-3-5.901c-.832.666-1.454 1.595-1.728 2.689l-.053.212h-.219v-48h2z"/></svg>